<?xml version="1.0" encoding="utf-8"?>
<!-- Generator: Adobe Illustrator 19.0.0, SVG Export Plug-In . SVG Version: 6.00 Build 0)  -->
<svg version="1.1" baseProfile="basic" id="Layer_1"
	 xmlns="http://www.w3.org/2000/svg" xmlns:xlink="http://www.w3.org/1999/xlink" x="0px" y="0px" viewBox="0 0 24 24"
	 xml:space="preserve">
<g id="XMLID_17017_">
	<circle id="XMLID_17021_" style="fill:#FFFFFF;" cx="12" cy="12.4" r="8.8"/>
	<path id="XMLID_17018_" style="fill:#231F20;" d="M12,0C5.4,0,0,5.4,0,12s5.4,12,12,12s12-5.4,12-12S18.6,0,12,0z M14.9,12L14.9,12
		c-0.1,0-1.9,0-1.9,0l0,0v1.7c0,1.7,0,3.5,0,5.2h-2.8v-6.5c0-0.1,0-0.4,0-0.4H8.8V9.6h1.4c0,0,0-1.3,0-1.4c0-1.1,0.1-2.2,1.3-2.7
		c0.8-0.4,1.6-0.3,2.5-0.3c0.4,0,0.8,0,1.2,0v2.4l-1.9,0.2c-0.2,0.2-0.2,0.6-0.2,0.9s0,0.7,0,1.1h2.1L14.9,12z"/>
</g>
</svg>
