<svg xmlns="http://www.w3.org/2000/svg" viewBox="0 0 41.875 41.876">
  <path fill-rule="evenodd" clip-rule="evenodd" fill="#FFF" d="M20.938 0c11.564 0 20.938 9.375 20.938 20.938 0 11.564-9.373 20.938-20.938 20.938C9.375 41.876 0 32.502 0 20.938 0 9.375 9.375 0 20.938 0zm-3.1 20.953c.061.076.025.611.025.71l.004 11.271h4.887c.029-2.967 0-6.012 0-8.992 0-.043-.01-2.888.004-2.946.01-.039.012-.034.021-.051 0 0 3.109.026 3.217-.001l.055-.016.428-4.114H22.77c-.014-.607.004-1.232.004-1.841 0-.557-.012-1.244.318-1.549l3.369-.339-.006-4.127c-.637-.038-1.395-.004-2.045-.004-1.457 0-2.975-.055-4.316.607-1.951.963-2.133 2.854-2.198 4.738-.009.233-.074 2.516-.042 2.516l-2.455.001.004 4.133 2.435.004z"/>
</svg>
