<svg id="Layer_1" xmlns="http://www.w3.org/2000/svg" viewBox="0 0 23 23"><style>.st0{fill:#EF4237;} .st1{fill:#FFFFFF;}</style><g id="XMLID_6_"><circle id="XMLID_4_" class="st0" cx="11.5" cy="11.5" r="11.5"/><path id="XMLID_7_" class="st1" d="M8.2 16.1H5.8V8.6h2.3v7.5zM6.9 7.7c-.9 0-1.4-.6-1.4-1.3 0-.7.6-1.3 1.4-1.3.9 0 1.4.6 1.4 1.3 0 .7-.5 1.3-1.4 1.3zm10.6 8.4h-2.6v-3.9c0-1-.4-1.7-1.3-1.7-.7 0-1.1.5-1.3.9-.1.2-.1.4-.1.6v4H9.6V8.5h2.6v1.2c.2-.5 1-1.2 2.3-1.2 1.7 0 3 1.1 3 3.4v4.2z"/></g></svg>