<?xml version="1.0" encoding="utf-8"?>
<!-- Generator: Adobe Illustrator 19.0.0, SVG Export Plug-In . SVG Version: 6.00 Build 0)  -->
<svg version="1.1" id="Layer_1" xmlns="http://www.w3.org/2000/svg" xmlns:xlink="http://www.w3.org/1999/xlink" x="0px" y="0px"
	 viewBox="0 0 42.9 33.5" style="enable-background:new 0 0 42.9 33.5;" xml:space="preserve">
<style type="text/css">
	.st0{fill:#FFFFFF;}
</style>
<g>
	<g>
		<path class="st0" d="M42.9,33.5H0V4.9h14.8V0h13.6v4.9h14.5V33.5z M2.1,31.4h38.7V7H26.3V2.1h-9.4V7H2.1V31.4z"/>
	</g>
	<g>
		<path class="st0" d="M21.4,30.1c-5.9,0-10.8-4.8-10.8-10.8c0-5.9,4.8-10.8,10.8-10.8c5.9,0,10.8,4.8,10.8,10.8
			C32.2,25.3,27.4,30.1,21.4,30.1z M21.4,10.7c-4.8,0-8.7,3.9-8.7,8.7c0,4.8,3.9,8.7,8.7,8.7c4.8,0,8.7-3.9,8.7-8.7
			C30.1,14.6,26.2,10.7,21.4,10.7z"/>
	</g>
	<g>
		<path class="st0" d="M21.4,26.1c-3.7,0-6.8-3-6.8-6.8s3-6.8,6.8-6.8s6.8,3,6.8,6.8S25.2,26.1,21.4,26.1z M21.4,14.7
			c-2.6,0-4.7,2.1-4.7,4.7s2.1,4.7,4.7,4.7s4.7-2.1,4.7-4.7S24,14.7,21.4,14.7z"/>
	</g>
	<g>
		<rect x="31.3" y="9.1" class="st0" width="7.4" height="2.1"/>
	</g>
</g>
</svg>
