<?xml version="1.0" encoding="utf-8"?>
<!-- Generator: Adobe Illustrator 19.0.0, SVG Export Plug-In . SVG Version: 6.00 Build 0)  -->
<svg version="1.1" id="Layer_1" xmlns="http://www.w3.org/2000/svg" xmlns:xlink="http://www.w3.org/1999/xlink" x="0px" y="0px"
	 viewBox="0 0 43.8 35.9" style="enable-background:new 0 0 43.8 35.9;" xml:space="preserve">
<style type="text/css">
	.st0{fill:#FFFFFF;}
</style>
<g>
	<g>
		<path class="st0" d="M42.7,25.7H1.1V0.3h41.6V25.7z M3.2,23.6h37.4V2.4H3.2V23.6z"/>
	</g>
	<g>
		<g>
			<path class="st0" d="M24.7,32.5h-5.5v-8.9h5.5V32.5z M21.3,30.4h1.3v-4.7h-1.3V30.4z"/>
		</g>
		<g>
			<path class="st0" d="M30.7,35.9H13.1v-5.4h17.6V35.9z M15.2,33.8h13.4v-1.2H15.2V33.8z"/>
		</g>
	</g>
	<g>
		<rect x="0" y="0" class="st0" width="43.8" height="2.1"/>
	</g>
	<g>
		<g>
			<rect x="20.9" y="9.9" class="st0" width="15.4" height="2.1"/>
		</g>
		<g>
			<g>
				<g>
					<path class="st0" d="M19.3,15.9H7.4V5.5h11.9V15.9z M9.5,13.8h7.7V7.6H9.5V13.8z"/>
				</g>
				<g>
					<rect x="20.9" y="5.5" class="st0" width="15.4" height="2.1"/>
				</g>
				<g>
					<rect x="20.9" y="13.8" class="st0" width="15.4" height="2.1"/>
				</g>
			</g>
			<g>
				<g>
					<rect x="7.4" y="18.8" class="st0" width="29" height="2.1"/>
				</g>
			</g>
		</g>
	</g>
</g>
</svg>
