<?xml version="1.0" encoding="utf-8"?>
<!-- Generator: Adobe Illustrator 19.0.0, SVG Export Plug-In . SVG Version: 6.00 Build 0)  -->
<svg version="1.1" baseProfile="basic" id="Layer_1"
	 xmlns="http://www.w3.org/2000/svg" xmlns:xlink="http://www.w3.org/1999/xlink" x="0px" y="0px" viewBox="0 0 24 24"
	 xml:space="preserve">
<g id="XMLID_17006_">
	<path id="XMLID_17011_" style="fill:#231F20;" d="M12,0c6.6,0,12,5.4,12,12s-5.4,12-12,12S0,18.6,0,12S5.4,0,12,0L12,0z"/>
	<path id="XMLID_17008_" style="fill:#FFFFFF;" d="M17.1,10.1c0,0.1,0,0.2,0,0.3c0,3.3-2.5,7-7,7c-1.4,0-2.7-0.4-3.8-1.1
		c0.2,0,0.4,0,0.6,0c1.2,0,2.2-0.4,3.1-1.1c-1.1,0-2-0.7-2.3-1.7c0.2,0,0.3,0,0.5,0s0.4,0,0.6-0.1c-1.1-0.2-2-1.2-2-2.4l0,0
		c0.3,0.2,0.7,0.3,1.1,0.3c-0.7-0.4-1.1-1.2-1.1-2c0-0.4,0.1-0.9,0.3-1.2c1.2,1.5,3,2.5,5.1,2.6c0-0.2-0.1-0.4-0.1-0.6
		c0-1.4,1.1-2.5,2.5-2.5c0.7,0,1.3,0.3,1.8,0.8c0.6,0,1.1-0.2,1.6-0.5c-0.2,0.6-0.6,1.1-1.1,1.4c0.5-0.1,1-0.2,1.4-0.4
		C18,9.3,17.5,9.8,17.1,10.1z"/>
</g>
</svg>
