<svg xmlns="http://www.w3.org/2000/svg" id="Layer_1" viewBox="0 0 42 41.999"><style id="style3418">.st0{fill-rule:evenodd;clip-rule:evenodd;fill:#FFFFFF;} .st1{fill:#EF4237;}</style><path d="M21 0C9.402 0 0 9.4 0 21c0 11.596 9.402 21 21 21s21-9.403 21-21C42 9.402 32.597 0 21 0zm4.953 12c1.37 0 2.597.574 3.46 1.498 1.083-.215 2.097-.61 3.01-1.15-.35 1.107-1.103 2.04-2.083 2.62.956-.112 1.87-.367 2.723-.745-.64.953-1.437 1.786-2.366 2.453.01.206.014.41.014.617 0 6.264-4.766 13.486-13.483 13.486-2.68 0-5.173-.79-7.274-2.132.373.044.75.065 1.133.065 2.226 0 4.27-.76 5.89-2.027-2.076-.04-3.825-1.41-4.427-3.295.29.057.582.087.887.087.434 0 .854-.056 1.25-.166-2.165-.432-3.802-2.348-3.802-4.648v-.058c.64.356 1.37.566 2.15.593-1.28-.85-2.11-2.3-2.11-3.947 0-.864.233-1.68.64-2.383 2.34 2.87 5.83 4.758 9.77 4.955-.082-.348-.12-.71-.12-1.082 0-2.616 2.12-4.74 4.738-4.74z" id="path3420" fill="#fff"/></svg>