<?xml version="1.0" encoding="utf-8"?>
<!-- Generator: Adobe Illustrator 19.0.0, SVG Export Plug-In . SVG Version: 6.00 Build 0)  -->
<svg version="1.1" id="Layer_1" xmlns="http://www.w3.org/2000/svg" xmlns:xlink="http://www.w3.org/1999/xlink" x="0px" y="0px"
	 viewBox="0 0 51 33.7" style="enable-background:new 0 0 51 33.7;" xml:space="preserve">
<style type="text/css">
	.st0{fill:#FFFFFF;}
</style>
<g>
	<g>
		<path class="st0" d="M51,33.7H0V0h51V33.7z M2.1,31.6h46.8V2.1H2.1V31.6z"/>
	</g>
	<g>
		<rect x="5.3" y="1.1" class="st0" width="2.1" height="31.6"/>
	</g>
	<g>
		<path class="st0" d="M25.5,29.2c-6.8,0-12.3-5.5-12.3-12.3S18.7,4.5,25.5,4.5c6.8,0,12.3,5.5,12.3,12.3S32.3,29.2,25.5,29.2z
			 M25.5,6.6c-5.6,0-10.2,4.6-10.2,10.2s4.6,10.2,10.2,10.2c5.6,0,10.2-4.6,10.2-10.2S31.2,6.6,25.5,6.6z"/>
	</g>
	<g>
		<path class="st0" d="M22,21.6v-9.5l8,4.8L22,21.6z M23.4,14.6v4.6l3.9-2.3L23.4,14.6z"/>
	</g>
	<g>
		<rect x="1" y="4.5" class="st0" width="5.3" height="2.1"/>
	</g>
	<g>
		<rect x="1" y="8.6" class="st0" width="5.3" height="2.1"/>
	</g>
	<g>
		<rect x="1" y="12.6" class="st0" width="5.3" height="2.1"/>
	</g>
	<g>
		<rect x="1" y="16.8" class="st0" width="5.3" height="2.1"/>
	</g>
	<g>
		<rect x="1" y="20.8" class="st0" width="5.3" height="2.1"/>
	</g>
	<g>
		<rect x="1" y="24.8" class="st0" width="5.3" height="2.1"/>
	</g>
	<g>
		<rect x="1" y="28.7" class="st0" width="5.3" height="2.1"/>
	</g>
	<g>
		<rect x="43.5" y="1.1" class="st0" width="2.1" height="31.6"/>
	</g>
	<g>
		<rect x="44.6" y="4.5" class="st0" width="5.3" height="2.1"/>
	</g>
	<g>
		<rect x="44.6" y="8.6" class="st0" width="5.3" height="2.1"/>
	</g>
	<g>
		<rect x="44.6" y="12.6" class="st0" width="5.3" height="2.1"/>
	</g>
	<g>
		<rect x="44.6" y="16.8" class="st0" width="5.3" height="2.1"/>
	</g>
	<g>
		<rect x="44.6" y="20.8" class="st0" width="5.3" height="2.1"/>
	</g>
	<g>
		<rect x="44.6" y="24.8" class="st0" width="5.3" height="2.1"/>
	</g>
	<g>
		<rect x="44.6" y="28.7" class="st0" width="5.3" height="2.1"/>
	</g>
</g>
</svg>
