<svg xmlns="http://www.w3.org/2000/svg" viewBox="0 0 41.664 42">
  <path fill-rule="evenodd" clip-rule="evenodd" fill="#FFF" d="M20.832 0C9.326 0 0 9.402 0 21c0 11.599 9.326 21 20.832 21 11.504 0 20.832-9.401 20.832-21 0-11.598-9.328-21-20.832-21zm10.206 23.144c1.753 1.613 2.974 2.927 3.665 3.942.323.506.426.955.311 1.347-.115.393-.381.589-.795.589l-4.563.207c-.646.046-1.43-.347-2.352-1.176-.923-.829-1.544-1.521-1.867-2.074-.186-.322-.519-.508-1.003-.555-.484-.044-.796.186-.934.692l-.14 1.799c-.046.368-.184.646-.413.83-.232.184-.427.288-.589.312-.161.021-.426.058-.796.104-1.197.046-2.246-.012-3.146-.174-.9-.161-1.718-.494-2.454-1.002-.738-.508-1.326-.969-1.764-1.384-.438-.415-1.071-1.083-1.902-2.005-2.258-3.229-3.941-6.018-5.048-8.369-.416-.922-.646-1.705-.692-2.35.185-.186.531-.301 1.038-.348.508-.046 1.245-.057 2.212-.034.969.024 1.544.034 1.73.034.461-.046.829.208 1.106.762 1.151 2.581 2.281 4.587 3.388 6.017.737.69 1.223.576 1.452-.347.094 0 .14-1.129.14-3.388.044-1.43-.531-2.328-1.729-2.696.276-.739 1.244-1.107 2.904-1.107.416 0 .923.021 1.521.068.6.047.922.069.969.069 1.384 0 2.074.553 2.074 1.66-.001.138-.022.473-.068 1.003-.046.529-.082 1.037-.104 1.521-.022.485-.034.991-.034 1.522 0 .53.069.979.207 1.349.139.368.323.6.555.691.253-.185.495-.357.726-.519.229-.162.472-.427.726-.796.254-.368.449-.646.588-.83.138-.184.346-.529.623-1.037.276-.507.438-.83.483-.968.046-.139.207-.495.483-1.072.277-.577.415-.864.415-.864l.103-.208c.188-.414.336-.656.451-.727.115-.068.404-.104.864-.104h4.288c.507 0 .807.012.899.035.092.023.23.127.413.313.324.414.035 1.313-.863 2.696s-1.763 2.534-2.594 3.458c-1.153 1.292-1.313 2.329-.484 3.114z"/>
</svg>
