<?xml version="1.0" standalone="no"?>
<!DOCTYPE svg PUBLIC "-//W3C//DTD SVG 20010904//EN"
 "http://www.w3.org/TR/2001/REC-SVG-20010904/DTD/svg10.dtd">
<svg version="1.0" xmlns="http://www.w3.org/2000/svg"
 width="16.000000pt" height="16.000000pt" viewBox="0 0 16.000000 16.000000"
 preserveAspectRatio="xMidYMid meet">
<metadata>
Created by potrace 1.11, written by Peter Selinger 2001-2013
</metadata>
<g transform="translate(0.000000,16.000000) scale(0.002286,-0.002286)"
fill="#000000" stroke="none">
<path d="M0 3500 l0 -3500 3500 0 3500 0 0 3500 0 3500 -3500 0 -3500 0 0
-3500z m2675 1983 c7 -19 762 -2008 796 -2100 20 -53 42 -71 64 -53 7 6 205
491 441 1078 235 587 432 1073 437 1080 7 9 128 12 542 12 414 0 535 -3 542
-12 10 -13 624 -4091 623 -4139 0 -15 -7 -30 -16 -33 -9 -3 -244 -6 -523 -6
-390 0 -511 3 -524 12 -13 11 -42 214 -157 1123 -77 611 -144 1126 -148 1145
-6 28 -12 35 -32 35 -24 0 -51 -61 -472 -1065 -246 -586 -463 -1104 -483
-1152 l-37 -88 -218 0 -218 0 -226 562 c-125 310 -333 829 -464 1153 -223 556
-238 590 -262 590 -19 0 -26 -7 -32 -30 -5 -16 -83 -532 -173 -1145 -134 -902
-168 -1117 -182 -1128 -25 -18 -1021 -18 -1047 1 -16 12 5 145 334 2080 193
1137 353 2074 356 2082 5 13 74 15 539 15 498 0 533 -1 540 -17z"/>
</g>
</svg>
