<?xml version="1.0" encoding="utf-8"?>
<!-- Generator: Adobe Illustrator 16.0.2, SVG Export Plug-In . SVG Version: 6.00 Build 0)  -->
<!DOCTYPE svg PUBLIC "-//W3C//DTD SVG 1.1//EN" "http://www.w3.org/Graphics/SVG/1.1/DTD/svg11.dtd">
<svg version="1.1" id="Layer_1" xmlns="http://www.w3.org/2000/svg" xmlns:xlink="http://www.w3.org/1999/xlink" x="0px" y="0px"
	 width="1355.394px" height="382.428px" viewBox="0 0 1355.394 382.428" enable-background="new 0 0 1355.394 382.428"
	 xml:space="preserve">
<linearGradient id="XMLID_2_" gradientUnits="userSpaceOnUse" x1="0" y1="191.2139" x2="1355.3936" y2="191.2139">
	<stop  offset="0" style="stop-color:#71C8B5"/>
	<stop  offset="1" style="stop-color:#AFD136"/>
</linearGradient>
<path id="XMLID_12483_" opacity="0.7" fill="url(#XMLID_2_)" d="M0.043,378.927L63.814,2.499C64.059,1.056,65.309,0,66.772,0h93.438
	c1.247,0,2.363,0.771,2.805,1.936L236.96,196.93c0.969,2.555,4.571,2.59,5.589,0.054L320.917,1.881
	C321.374,0.745,322.477,0,323.702,0h94.581c1.485,0,2.747,1.086,2.967,2.555l56.435,376.428c0.272,1.813-1.133,3.444-2.967,3.444
	h-93.065c-1.51,0-2.785-1.122-2.976-2.62l-26.345-206.45c-0.389-3.044-4.556-3.61-5.743-0.78l-87.212,208.009
	c-0.468,1.115-1.558,1.841-2.767,1.841h-35.536c-1.226,0-2.328-0.746-2.785-1.884l-83.418-208c-1.139-2.841-5.302-2.352-5.752,0.676
	L98.446,379.868c-0.218,1.471-1.48,2.56-2.967,2.56H3C1.144,382.428-0.268,380.757,0.043,378.927z M541.253,379.428V3
	c0-1.657,1.343-3,3-3h144.925c27.521,0,60.203,4.013,83.708,29.814c13.189,14.333,23.509,37.841,23.509,71.669
	c0,16.628-2.866,30.961-10.893,47.015c-6.432,11.943-13.23,19.838-23.051,25.749c-2.345,1.411-1.773,4.94,0.903,5.507
	c16.974,3.596,33.089,11.71,43.36,21.493c15.482,14.908,25.801,39.563,25.801,69.95c0,36.12-13.76,60.774-28.093,75.108
	c-20.643,21.215-56.764,36.122-103.777,36.122H544.253C542.596,382.428,541.253,381.085,541.253,379.428z M640.443,147.792
	c0,1.657,1.343,3,3,3h15.347c10.318,0,27.52-1.146,37.841-12.041c6.307-6.307,9.173-16.626,9.173-25.227
	c0-9.747-3.438-19.494-9.173-25.8c-6.307-6.307-18.347-11.468-37.841-11.468h-15.347c-1.657,0-3,1.343-3,3V147.792z
	 M640.443,302.024c0,1.657,1.343,3,3,3h19.358c27.522,0,50.457-2.866,61.349-15.48c4.588-5.16,8.029-13.761,8.029-24.654
	c0-12.04-4.015-21.788-9.748-27.521c-12.041-12.04-36.695-12.614-61.349-12.614h-17.64c-1.657,0-3,1.343-3,3V302.024z M994.766,3
	v292.144c0,1.657,1.344,3,3,3h113.257c1.657,0,3,1.344,3,3v78.284c0,1.657-1.343,3-3,3H898.576c-1.657,0-3-1.343-3-3V3
	c0-1.657,1.343-3,3-3h93.189C993.423,0,994.766,1.343,994.766,3z M1273.975,87.283v292.145c0,1.657-1.343,3-3,3h-93.189
	c-1.657,0-3-1.343-3-3V87.283c0-1.657-1.344-3-3-3h-75.416c-1.656,0-3-1.343-3-3V3c0-1.657,1.344-3,3-3h256.024c1.656,0,3,1.343,3,3
	v78.283c0,1.657-1.344,3-3,3h-75.419C1275.318,84.283,1273.975,85.626,1273.975,87.283z"/>
</svg>
