<svg xmlns="http://www.w3.org/2000/svg" viewBox="0 0 1328.244 47.345">
  <path fill="#D2D3D4" d="M25.392 22.805c-1.425 0-2.854-.623-3.942-1.871-5.038-5.789-9.639-8.149-15.877-8.149C2.497 12.784 0 9.92 0 6.393 0 2.864 2.497 0 5.572 0 17.448 0 24.51 6.36 29.335 11.895c2.172 2.498 2.172 6.548-.004 9.045-1.087 1.242-2.516 1.865-3.939 1.865zm638.631 24.54c-12.274 0-19.626-6.927-24.66-12.961-2.131-2.547-2.056-6.595.166-9.033 2.217-2.445 5.753-2.362 7.878.196 4.519 5.407 9.076 9.014 16.62 9.014h.008c5.78 0 10.184-2.056 14.725-6.879 2.267-2.398 5.788-2.238 7.878.356 2.091 2.593 1.949 6.636-.312 9.032-6.609 7.006-13.693 10.274-22.288 10.274 0 .001-.011.001-.015.001zm506.596 0c-7.721 0-14.386-2.727-20.362-8.334-2.383-2.237-2.737-6.261-.788-8.997 1.943-2.736 5.459-3.131 7.837-.901 4.021 3.768 8.124 5.448 13.313 5.448 7.982 0 12.816-4.114 18.027-10.752 2.057-2.625 5.582-2.834 7.868-.467 2.287 2.357 2.47 6.402.41 9.025-5.813 7.407-13.485 14.978-26.305 14.978zm-202.639 0c-15.236 0-22.854-10.251-29.573-19.294-1.531-2.064-3.062-4.133-4.694-6.063-2.146-2.536-2.091-6.578.113-9.04 2.214-2.459 5.741-2.398 7.882.134 1.842 2.176 3.538 4.465 5.183 6.675 6.145 8.271 10.999 14.805 21.09 14.805 1.699 0 3.312-.189 4.79-.563 3.022-.777 5.982 1.423 6.641 4.869.656 3.451-1.243 6.86-4.244 7.615-2.268.571-4.687.862-7.188.862zm-101.315 0c-1.536 0-3.051-.112-4.513-.328-3.051-.454-5.205-3.663-4.807-7.164.396-3.504 3.173-5.975 6.243-5.513.972.146 1.992.221 3.076.221 10.09 0 14.939-6.529 21.087-14.796 2.165-2.916 4.401-5.931 6.964-8.69 2.236-2.421 5.767-2.297 7.874.28 2.105 2.571 1.997 6.616-.244 9.035-2.109 2.276-4.054 4.894-6.113 7.671-6.72 9.037-14.336 19.284-29.567 19.284zm-405.226 0c-15.235 0-22.849-10.251-29.567-19.294-2.663-3.589-5.182-6.975-8.053-9.602-2.404-2.201-2.801-6.225-.883-8.985 1.928-2.759 5.43-3.203 7.832-1.011 3.708 3.395 6.696 7.416 9.584 11.303 6.146 8.275 10.995 14.805 21.087 14.805l.63-.01c3.017-.267 5.642 2.683 5.724 6.209.089 3.53-2.335 6.473-5.411 6.568l-.943.017zm-101.303 0c-3.823 0-7.442-.685-10.759-2.027-2.899-1.174-4.419-4.828-3.396-8.156 1.025-3.328 4.198-5.079 7.11-3.896 2.148.87 4.456 1.295 7.044 1.295 10.093 0 14.947-6.533 21.088-14.805.978-1.319 1.958-2.633 2.956-3.92 2.047-2.631 5.563-2.875 7.865-.52 2.299 2.353 2.5 6.393.455 9.024-.946 1.218-1.871 2.46-2.794 3.705-6.716 9.049-14.329 19.3-29.569 19.3zm-202.615 0c-15.131-.003-23.124-10.679-28.407-17.743-2.007-2.678-1.737-6.717.596-9.014 2.341-2.3 5.854-1.984 7.854.684 5.824 7.777 10.662 13.285 19.957 13.289 4.351 0 7.94-1.189 11.3-3.747 2.552-1.948 6.016-1.156 7.72 1.794 1.701 2.943 1 6.908-1.563 8.861-5.197 3.953-10.909 5.876-17.457 5.876zm-95.995-.555c-2.619 0-4.958-2.133-5.465-5.199-.573-3.469 1.41-6.815 4.436-7.472 7.329-1.596 11.72-7.514 16.809-14.363 4.396-5.922 8.944-12.049 15.813-15.84 2.747-1.525 6.098-.201 7.435 2.986 1.334 3.184.173 7.002-2.599 8.535-4.746 2.621-8.353 7.472-12.173 12.613-5.635 7.589-12.025 16.192-23.211 18.628-.347.077-.699.112-1.045.112zm1202.12-.877c-.568 0-1.146-.101-1.715-.312-8.98-3.336-14.591-10.884-19.544-17.547-4.353-5.856-8.463-11.382-14.368-13.633-2.921-1.116-4.5-4.731-3.533-8.084.967-3.354 4.1-5.162 7.043-4.051 8.856 3.374 14.425 10.866 19.337 17.469 4.573 6.15 8.521 11.462 14.497 13.684 2.927 1.088 4.533 4.689 3.584 8.049-.759 2.705-2.947 4.425-5.301 4.425zm-690.547-.882c-2.162 0-4.216-1.45-5.123-3.875-1.214-3.248.097-7.004 2.925-8.394 5.127-2.517 8.91-7.61 12.915-13.001 5.407-7.275 11.53-15.52 21.936-18.316 2.966-.82 5.993 1.322 6.692 4.764.703 3.436-1.157 6.876-4.155 7.682-6.835 1.838-11.08 7.551-15.992 14.164-4.443 5.98-9.483 12.761-17.006 16.459-.712.351-1.457.517-2.192.517zM752.29 43.49c-.949 0-1.913-.278-2.791-.864-5.749-3.829-9.809-9.29-13.729-14.571-5.391-7.259-10.05-13.53-18.311-14.625-3.054-.406-5.246-3.578-4.894-7.088.36-3.502 3.13-6.01 6.177-5.613 12.617 1.679 19.467 10.895 25.509 19.033 3.469 4.668 6.74 9.076 10.843 11.811 2.659 1.771 3.563 5.686 2.018 8.734-1.03 2.043-2.9 3.183-4.822 3.183zm331.937-1.394c-1.759 0-3.489-.952-4.575-2.734-1.757-2.896-1.14-6.883 1.382-8.9 3.421-2.734 6.298-6.607 9.341-10.705 6.492-8.739 13.854-18.643 28.179-19.265 3.15-.215 5.665 2.618 5.775 6.147.117 3.528-2.278 6.498-5.356 6.63-9.438.408-14.15 6.751-20.117 14.777-3.365 4.537-6.852 9.229-11.447 12.903-.972.778-2.081 1.147-3.182 1.147zM241.489 39.97c-1.275 0-2.558-.501-3.607-1.525-3.272-3.19-5.992-6.853-8.62-10.394-6.146-8.27-11-14.799-21.091-14.799-.515 0-1.022.017-1.514.05-3.071.186-5.712-2.473-5.896-5.999-.185-3.519 2.154-6.55 5.228-6.762.711-.05 1.441-.076 2.183-.076 15.236 0 22.853 10.251 29.571 19.297 2.451 3.3 4.765 6.418 7.361 8.948 2.342 2.285 2.628 6.321.632 9.008-1.102 1.487-2.67 2.252-4.247 2.252zm39.067-4.937c-1.347 0-2.691-.551-3.756-1.671-2.274-2.386-2.434-6.428-.359-9.032 1.188-1.49 2.331-3.031 3.476-4.568 6.717-9.038 14.33-19.293 29.566-19.297 3.345 0 6.537.523 9.494 1.551 2.946 1.024 4.61 4.59 3.719 7.97-.89 3.382-4.001 5.288-6.948 4.265-1.935-.67-3.985-.998-6.265-.998-10.093.004-14.942 6.533-21.086 14.803-1.228 1.652-2.457 3.306-3.728 4.897-1.1 1.381-2.603 2.08-4.113 2.08zm764.992-2.617c-1.563 0-3.115-.748-4.22-2.211l-1.609-2.159c-6.143-8.265-10.99-14.794-21.079-14.794-3.156 0-5.92.633-8.452 1.935-2.819 1.431-6.104-.004-7.364-3.22-1.261-3.223 0-7.007 2.806-8.448 3.995-2.054 8.252-3.054 13.011-3.054 15.232 0 22.848 10.25 29.561 19.287l1.56 2.094c2.013 2.672 1.755 6.704-.574 9.016-1.053 1.042-2.353 1.554-3.64 1.554zm-509.972-4.582c-1.559 0-3.105-.744-4.207-2.201-5.312-7.016-10.104-12.381-19.271-12.381-4.63.004-8.443 1.373-12.009 4.311-2.497 2.052-5.985 1.4-7.777-1.463-1.793-2.868-1.223-6.865 1.277-8.923 5.475-4.513 11.527-6.708 18.504-6.712 13.825 0 21.54 8.667 27.689 16.786 2.019 2.664 1.77 6.7-.557 9.02-1.054 1.047-2.351 1.563-3.649 1.563zm295.791-3.586c-1.516.42-3.172.113-4.544-1.007-6.595-5.395-12.35-9.323-21.259-6.858-4.502 1.251-7.929 3.606-10.797 7.422-2.007 2.664-5.527 2.973-7.857.666-2.328-2.306-2.592-6.342-.582-9.017 4.4-5.858 9.839-9.618 16.62-11.497 13.439-3.718 22.709 2.63 30.345 8.872 2.506 2.048 3.09 6.038 1.301 8.917-.81 1.302-1.965 2.153-3.227 2.502zm471.477-1.454c-1.425 0-2.854-.625-3.94-1.874-2.175-2.496-2.175-6.546.002-9.043C1303.729 6.346 1310.792 0 1322.671 0c3.078 0 5.573 2.864 5.573 6.393 0 3.527-2.495 6.392-5.573 6.392-6.241 0-10.848 2.36-15.886 8.142-1.09 1.242-2.514 1.867-3.941 1.867z" opacity=".3"/>
</svg>
